<?xml version="1.0" encoding="UTF-8" standalone="no"?>
<svg
   xmlns:dc="http://purl.org/dc/elements/1.1/"
   xmlns:cc="http://creativecommons.org/ns#"
   xmlns:rdf="http://www.w3.org/1999/02/22-rdf-syntax-ns#"
   xmlns:svg="http://www.w3.org/2000/svg"
   xmlns="http://www.w3.org/2000/svg"
   xmlns:sodipodi="http://sodipodi.sourceforge.net/DTD/sodipodi-0.dtd"
   xmlns:inkscape="http://www.inkscape.org/namespaces/inkscape"
   inkscape:version="1.0 (4035a4fb49, 2020-05-01)"
   sodipodi:docname="github.svg"
   id="svg4"
   version="1.1"
   enable-background="new 0 0 50 50"
   viewBox="0 0 50 50">
  <metadata
     id="metadata10">
    <rdf:RDF>
      <cc:Work
         rdf:about="">
        <dc:format>image/svg+xml</dc:format>
        <dc:type
           rdf:resource="http://purl.org/dc/dcmitype/StillImage" />
      </cc:Work>
    </rdf:RDF>
  </metadata>
  <defs
     id="defs8" />
  <sodipodi:namedview
     inkscape:current-layer="svg4"
     inkscape:window-maximized="1"
     inkscape:window-y="25"
     inkscape:window-x="0"
     inkscape:cy="25"
     inkscape:cx="25"
     inkscape:zoom="11.98"
     showgrid="false"
     id="namedview6"
     inkscape:window-height="1031"
     inkscape:window-width="1920"
     inkscape:pageshadow="2"
     inkscape:pageopacity="0"
     guidetolerance="10"
     gridtolerance="10"
     objecttolerance="10"
     borderopacity="1"
     bordercolor="#666666"
     pagecolor="#ffffff" />
  <path
     style="stroke-width:1.64386"
     id="path2"
     d="m 25.116285,1.820423 c -13.64402,0 -24.65786818,11.013848 -24.65786818,24.657868 0,10.849462 7.06858908,20.055067 16.93173618,23.342783 1.315086,0.164385 1.643858,-0.493158 1.643858,-1.150701 V 44.396342 C 12.129809,45.875815 10.650337,41.108627 10.650337,41.108627 9.4996354,38.314068 7.8557775,37.492139 7.8557775,37.492139 5.5543764,36.012667 8.0201633,36.012667 8.0201633,36.012667 c 2.4657877,0.164386 3.7808737,2.465787 3.7808737,2.465787 2.137015,3.780873 5.753502,2.630173 7.232974,1.97263 0.164386,-1.643858 0.821929,-2.630173 1.643858,-3.287716 -5.42473,-0.657543 -11.1782336,-2.794559 -11.1782336,-12.164549 0,-2.630172 0.9863156,-4.931574 2.4657876,-6.575431 -0.328772,-0.657544 -1.150701,-3.12333 0.164386,-6.575431 0,0 2.137015,-0.657544 6.739816,2.465786 1.97263,-0.493157 4.109645,-0.821928 6.24666,-0.821928 2.137016,0 4.274031,0.328771 6.24666,0.821928 4.767188,-3.12333 6.739818,-2.465786 6.739818,-2.465786 1.315086,3.452101 0.493157,5.917887 0.164386,6.575431 1.643857,1.643857 2.465786,3.945259 2.465786,6.575431 0,9.534376 -5.753502,11.507006 -11.178233,12.164549 0.821929,0.821929 1.643858,2.301401 1.643858,4.602802 v 6.739817 c 0,0.657543 0.493157,1.479472 1.643857,1.150701 C 42.705565,46.368972 49.609768,37.163368 49.609768,26.313906 49.774154,12.834271 38.760306,1.820423 25.116285,1.820423 Z"
     fill="#181616"
     clip-rule="evenodd"
     fill-rule="evenodd" />
</svg>
